HIERARCHY
ROOT joint_0
{
	OFFSET 0.000000 0.000000 0.000000
	CHANNELS 6 Xposition Yposition Zposition Zrotation Yrotation Xrotation 
	JOINT joint_1
	{
		OFFSET 1.363060 -1.794630 0.839290
		CHANNELS 3 Zrotation Yrotation Xrotation
		JOINT joint_2
		{
			OFFSET 2.448110 -6.726130 0.000000
			CHANNELS 3 Zrotation Yrotation Xrotation
			JOINT joint_3
			{
				OFFSET 2.562200 -7.039590 0.000000
				CHANNELS 3 Zrotation Yrotation Xrotation
				JOINT joint_4
				{
					OFFSET 0.157640 -0.433110 2.322550
					CHANNELS 3 Zrotation Yrotation Xrotation
					End Site
					{
						OFFSET 0.000000 0.000000 0.000000
					}
				}
			}
		}
	}
	JOINT joint_5
	{
		OFFSET -1.305520 -1.794630 0.839290
		CHANNELS 3 Zrotation Yrotation Xrotation
		JOINT joint_6
		{
			OFFSET -2.542530 -6.985550 0.000000
			CHANNELS 3 Zrotation Yrotation Xrotation
			JOINT joint_7
			{
				OFFSET -2.568260 -7.056230 0.000000
				CHANNELS 3 Zrotation Yrotation Xrotation
				JOINT joint_8
				{
					OFFSET -0.164730 -0.452590 2.363150
					CHANNELS 3 Zrotation Yrotation Xrotation
					End Site
					{
						OFFSET 0.000000 0.000000 0.000000
					}
				}
			}
		}
	}
	JOINT joint_9
	{
		OFFSET 0.028270 2.035590 -0.193380
		CHANNELS 3 Zrotation Yrotation Xrotation
		JOINT joint_10
		{
			OFFSET 0.056720 2.048850 -0.042750
			CHANNELS 3 Zrotation Yrotation Xrotation
			JOINT joint_11
			{
				OFFSET -0.054170 1.746240 0.172020
				CHANNELS 3 Zrotation Yrotation Xrotation
				JOINT joint_12
				{
					OFFSET 0.104070 1.761360 -0.123970
					CHANNELS 3 Zrotation Yrotation Xrotation
					End Site
					{
						OFFSET 0.000000 0.000000 0.000000
					}
				}
			}
			JOINT joint_13
			{
				OFFSET 3.362410 1.200890 -0.311210
				CHANNELS 3 Zrotation Yrotation Xrotation
				JOINT joint_14
				{
					OFFSET 4.983000 -0.000000 -0.000000
					CHANNELS 3 Zrotation Yrotation Xrotation
					JOINT joint_15
					{
						OFFSET 3.483560 -0.000000 -0.000000
						CHANNELS 3 Zrotation Yrotation Xrotation
						JOINT joint_16
						{
							OFFSET 0.000000 0.000000 0.000000
							CHANNELS 3 Zrotation Yrotation Xrotation
							End Site
							{
								OFFSET 0.000000 0.000000 0.000000
							}
						}
					}
				}
			}
			JOINT joint_17
			{
				OFFSET -3.136600 1.374050 -0.404650
				CHANNELS 3 Zrotation Yrotation Xrotation
				JOINT joint_18
				{
					OFFSET -5.241900 -0.000000 -0.000000
					CHANNELS 3 Zrotation Yrotation Xrotation
					JOINT joint_19
					{
						OFFSET -3.444170 -0.000000 -0.000000
						CHANNELS 3 Zrotation Yrotation Xrotation
						JOINT joint_20
						{
							OFFSET 0.000000 0.000000 0.000000
							CHANNELS 3 Zrotation Yrotation Xrotation
							End Site
							{
								OFFSET 0.000000 0.000000 0.000000
							}
						}
					}
				}
			}
		}
	}
}
MOTION
Frames: 14
Frame Time: 0.031667
-9.504039 13.213994 1.398569 -12.802456 78.930977 -3.364663 -13.566348 27.260583 -38.955266 -25.472631 32.449655 22.969819 -4.765865 -8.024159 -21.116002 -9.340957 -7.140633 -20.476765 -11.242966 -16.539962 -21.313515 -20.162444 -10.150312 67.287665 -14.780275 -12.395563 11.235196 -5.045996 -44.944081 -23.125535 0.857097 -11.492845 5.015932 -1.992131 -21.728146 -23.021407 3.182561 -8.385663 34.638485 -8.298346 1.079204 -51.215490 -63.773705 -86.796808 31.074577 11.241435 -25.632936 -3.585848 2.573394 8.110980 -0.376138 -0.917798 -4.881528 -13.401818 66.392863 76.865816 39.170624 -37.626994 37.380774 -13.411130 -20.417706 -8.777012 6.569503 -6.970804 -11.299056 -15.383877 
-9.044865 13.234505 1.380784 -15.252708 78.662460 -5.019760 4.401650 5.866998 -56.052423 -24.300389 12.979687 20.109020 -9.510076 21.739599 -8.895333 -22.856410 23.684485 10.172882 -16.596057 -8.880258 -30.848317 -20.229622 -33.603019 64.851863 -4.427541 -0.104779 2.717802 -9.009931 -34.497251 -22.938089 11.792881 12.195109 -0.960598 -10.868445 2.767062 1.522977 15.263600 21.269846 18.491241 10.642448 -12.057707 -52.254279 92.757848 -86.598364 175.616573 33.917002 -55.322600 3.168049 11.558815 -9.744396 -21.416489 -18.518813 21.943090 7.404678 -96.726149 85.963894 -126.245779 -24.481153 0.358173 -51.891213 -35.196648 -20.696548 -3.770333 18.852344 -9.413191 -3.971331 
-8.582102 13.253814 1.375227 -16.009581 78.725639 -5.274573 -13.216482 -8.432267 -59.150527 6.053748 -3.633006 50.933610 18.983328 1.880982 -3.039471 -1.845043 23.944211 -21.460774 4.459817 -33.296147 -37.083766 -21.153852 -38.145707 71.536211 14.654591 14.456778 -19.261215 -18.764272 -29.796057 -45.979080 -1.038639 -6.619211 -5.338074 -16.230853 19.398750 -9.403663 3.427335 19.930795 -9.087902 14.723117 -15.401847 -31.917592 -81.072007 -84.286139 29.574848 29.999571 -36.719157 4.054489 29.297259 -4.182022 16.911502 -13.301295 -20.358113 15.489213 60.254718 63.271636 39.006897 -10.925076 31.919654 -17.916807 -22.670235 -27.951934 12.215732 -5.076744 0.298229 10.113037 
-8.108243 13.300405 1.390545 -14.743326 79.047958 -3.570675 5.224053 10.822399 -32.345263 -23.664832 13.687426 64.531363 -24.063382 4.546150 6.716920 15.143669 -9.173593 -13.482740 -15.881719 -17.773272 -9.128648 14.697618 -13.901002 81.464645 8.690007 12.925985 -19.337748 -22.920313 -23.698967 -20.176873 21.711372 8.169092 0.779594 -18.536922 12.129482 -8.979867 0.899197 -2.986133 6.484306 -11.626057 -10.686394 -38.585816 -96.951413 -48.052576 13.753218 24.057291 -14.527517 -12.623674 28.154589 1.703593 15.002557 -5.068973 4.106604 14.569891 100.730499 48.765946 51.582453 -21.495465 42.956287 -59.332227 -32.017686 15.677851 0.513557 17.616206 2.930983 -4.723518 
-7.625435 13.354099 1.398971 -12.545284 79.557106 -1.045868 -11.309843 23.235973 -44.283024 -7.718438 34.388988 56.770559 -22.320135 0.755051 10.265741 -23.099261 8.042703 -8.022376 14.487687 -22.937410 0.941477 3.038115 1.895926 72.299152 15.276825 0.041569 -23.492809 -0.115482 -36.234684 -29.336179 -4.952320 4.756015 3.466143 1.511872 -16.332934 11.570843 7.816674 14.759856 14.954182 6.001151 -17.143522 -31.213481 -104.622996 -88.508539 28.298798 35.300535 -38.696730 -30.044891 -0.529547 -21.354828 17.848333 13.910546 -13.212564 -6.421700 81.199951 72.205495 54.951552 -12.404325 25.287727 -46.172199 0.100743 8.931001 11.674246 -0.924155 -17.045079 -12.510294 
-7.136471 13.432327 1.396847 -12.834898 80.075310 -0.522212 -19.272407 32.571502 -35.821110 -3.014467 38.507945 37.605117 -13.855932 -11.676810 15.327422 -3.373106 25.019031 14.873127 -18.731821 -29.791240 -34.914933 -17.491203 -10.251728 95.880869 -6.742442 4.985006 21.425692 -16.496372 -4.304855 -14.301115 10.934945 19.619670 -10.200636 -4.418611 17.205627 14.433894 17.606657 -1.814368 18.577246 17.551034 -17.167578 -48.508951 -81.819513 -62.559686 15.616537 10.912629 -8.901160 -32.143011 -6.477158 -17.234224 0.882827 -10.827967 20.012707 15.095665 85.042583 78.891376 66.409746 -8.546677 17.078304 -44.233356 -26.560032 8.977928 -11.769522 11.624366 3.074690 18.038380 
-6.670526 13.501952 1.377144 -15.472880 80.590347 -2.654320 -8.617028 21.405306 -39.521901 -3.990723 2.270584 68.546475 1.073542 -6.296134 -10.920355 14.095132 -4.223175 8.738092 -22.195186 -6.386461 -37.432953 3.687282 -36.776370 64.781277 4.400672 -4.133053 1.785118 -16.011516 -17.585120 -16.233357 -8.044284 6.044968 -2.544452 17.405180 -18.922786 -19.320953 4.693250 0.155650 12.622882 -3.636178 24.720793 -29.772456 -76.837186 -59.967574 44.919938 33.513159 -34.681957 -19.576860 12.290537 -5.731083 -20.217582 15.383304 4.311496 8.567355 93.240002 83.204920 32.461223 -27.881070 33.242471 -60.285780 -13.605928 9.887242 1.272616 22.227844 -5.518953 7.498666 
-6.211817 13.555721 1.369746 -18.887506 81.359276 -5.776923 -25.128843 0.560101 -45.859552 -7.859565 36.419375 47.748953 16.827482 15.415835 5.170159 16.493219 8.189441 1.733764 12.209288 3.150817 -27.519478 -11.069116 -19.712884 84.333855 -8.149898 -4.047043 -16.787565 2.680815 -42.657897 -10.314136 20.333368 2.721581 13.683750 19.179264 3.934094 13.082820 -10.462101 -18.664609 14.257140 17.998145 -11.215249 -7.719047 -92.690689 -65.304050 33.237858 25.275093 -24.475470 6.178550 -6.268447 4.659074 13.144244 -11.795657 1.280524 11.482782 59.087822 56.836167 45.310571 -20.261271 35.534548 -48.762481 -32.612853 -29.717341 -4.469408 -7.013639 15.696447 21.587032 
-5.754084 13.606577 1.388607 -22.488663 82.385277 -9.056768 6.455302 -2.068916 -66.499837 3.499735 32.425957 73.417349 -18.719025 21.276919 -3.348946 25.330941 15.607227 -23.726109 -20.479370 -14.824721 -9.398545 -11.572899 -12.977676 88.327520 22.806443 0.689156 18.241982 38.181021 -52.221302 12.306595 -12.413597 -5.127759 13.239639 -0.794301 -4.261519 -8.981511 -13.218983 23.837480 9.174222 15.011684 10.697826 -36.031555 -89.797564 -75.206118 30.568158 30.732831 -10.718977 -29.348017 -13.311201 8.674844 -22.365940 -6.952026 19.736534 -6.160759 102.821057 58.738441 59.386487 -24.811317 1.546258 -32.015517 -31.001233 -13.060645 15.727774 8.354806 17.622526 -0.920537 
-5.301321 13.663393 1.430833 -25.437986 83.286415 -11.655134 1.465307 -0.363130 -59.859961 -19.072060 38.442605 48.603525 9.886902 21.563764 3.517029 15.481186 24.467419 -27.068061 -1.547285 4.793867 -6.584721 20.689920 -18.628801 83.926619 15.883588 12.638927 -11.244327 14.267023 -24.756609 -7.010487 -9.703461 -7.131835 13.560182 -8.595729 -11.134600 -11.283874 13.233698 -7.895671 25.417042 33.593491 14.091911 -30.170322 -89.146332 -76.074367 49.949197 25.380010 -37.594671 -37.382046 20.677089 -8.319446 -20.989523 3.716627 -18.243554 -5.032727 85.465078 79.277490 47.873668 -6.105445 18.698544 -22.859452 -30.985974 7.424534 -8.820887 0.722063 9.150572 13.781438 
-4.854264 13.730706 1.477207 -27.362179 84.278252 -13.071217 -14.946543 -4.138421 -67.150606 -11.548172 17.599408 46.223419 10.923120 2.995727 -15.191944 -4.912643 22.107651 -30.339917 1.600824 -12.054585 -2.780839 9.265017 -10.338753 74.574081 11.883685 13.894155 12.310247 25.045136 -55.925111 -5.176504 -4.382211 9.927346 -16.475123 -6.486155 -4.197636 4.469083 -17.099745 14.539624 -7.280812 34.017742 -8.644089 -6.513094 -81.619920 -60.400867 29.570669 4.190152 -12.256553 -0.983228 3.084922 14.814371 5.792173 -18.171364 -5.672099 -0.078689 93.760938 63.501484 53.915941 -40.290472 13.822249 -47.312267 -18.605751 -11.915073 -10.108891 -21.851974 0.943108 -15.889118 
-4.434174 13.791907 1.522553 -32.812950 85.215744 -18.129774 13.080508 7.662460 -50.685146 -17.031097 2.477809 86.759310 -21.101795 -19.952933 7.465088 5.008649 22.928443 -22.627235 12.967536 -14.325045 -25.571091 14.510817 -25.994934 81.752682 3.754347 19.614592 16.222132 15.037972 -51.619162 -21.705735 15.018824 3.431832 -15.971364 3.992858 2.303236 10.346950 4.213178 0.065044 -5.394177 36.700886 -8.429416 -20.881038 -104.346205 -76.964625 48.726203 22.712787 -30.650366 -6.496862 9.959785 -16.008857 8.644036 -8.088649 -22.253332 -18.899650 91.079239 45.666344 46.440876 -19.045185 36.486328 -65.966464 -13.584413 -2.384178 16.220643 -15.121772 4.487486 -1.754859 
-4.034414 13.848228 1.565736 -39.149872 85.516022 -24.179087 -23.538774 19.885454 -53.684356 -10.900587 5.052541 88.672907 12.875344 0.759320 19.424712 35.195397 2.239424 -4.184872 13.785747 -1.529733 -28.202561 20.814636 -24.848721 114.548587 -1.376354 -4.286993 -20.846913 17.453973 -45.170249 -18.803092 0.665959 -8.111607 -19.500776 -12.062268 8.342669 -19.735270 2.008515 -7.537318 8.566402 5.540986 15.060208 -26.876458 -81.248071 -72.656589 59.777710 12.753606 -26.543097 -22.621956 -14.305900 -10.954166 4.408663 18.499013 17.728287 11.201173 77.498136 38.907409 73.317794 -33.557516 5.896520 -43.507415 -19.999373 -21.879053 -19.564423 4.978646 -18.671845 -15.015474 
-3.661366 13.910210 1.598949 -50.529392 85.616112 -35.274521 15.872502 6.107556 -51.219234 -3.892333 6.777642 92.174789 16.705140 -1.505427 -8.146403 35.846538 26.993664 -11.871300 19.547212 -14.902770 -17.291707 22.604859 -5.725229 107.181177 18.333421 5.613540 1.353107 1.805390 -55.287063 -21.507775 -9.561807 15.787544 5.044305 -3.924352 8.177577 -19.229924 11.497098 16.778469 5.479439 21.264689 0.813991 -0.000940 -67.822563 -70.997572 28.288042 10.846789 -42.370709 -19.540756 -11.374371 -8.104539 6.017291 -19.165027 7.787488 2.632455 74.855494 54.033426 50.957572 -11.835672 20.334032 -35.402824 -14.973027 -7.500134 -3.026670 -10.972471 -9.223958 -9.935337 
